<svg height="20" viewBox="0 0 196.6 38.5">
<g>
    <path fill="#FFFFFF" d="M0,10.8h6.9v21.4h12.5v6.2H0V10.8z"/>
    <path fill="#FFFFFF" d="M27.5,10.8h6.9v27.6h-6.9V10.8z"/>
    <path fill="#FFFFFF" d="M57.2,38.5h-8l-8.4-27.6H48l5.2,20.5h0.1l5.2-20.5h7.3L57.2,38.5z"/>
    <path fill="#FFFFFF" d="M72.5,10.8h21.3v5.7H79.4v4.9h13.1V27H79.4v5.3h14.7v6.2H72.5V10.8z"/>
</g>
<path fill="#FFFFFF" d="M136.7,0h10.4l4.7,18.7h0.1L156.5,0h10.4v28h-6.6V6.7h-0.1L154.5,28h-5.4l-5.7-21.3h-0.1V28h-6.6V0z"/>
<path fill="#FFFFFF" d="M176.9,0h7v21.7h12.7V28h-19.7V0z"/>
<polygon fill="#FFFFFF" points="196.6,32.2 103.3,32.3 103.3,38.5 196.6,38.5 "/>
<polygon points="130.7,28 122.1,28 117,18.7 111.5,28 103.4,28 113,13.3 108.3,6.2 0,6.2 0,0 112.4,0 112.4,0.1 117,8.7 121.8,0 129.9,0 121.1,13.3 "/>
</svg>
